<?xml version="1.0" encoding="iso-8859-1"?>
<!-- Uploaded to: SVG Repo, www.svgrepo.com, Generator: SVG Repo Mixer Tools -->
<svg height="800px" width="800px" version="1.1" id="Layer_1" xmlns="http://www.w3.org/2000/svg" xmlns:xlink="http://www.w3.org/1999/xlink" 
	 viewBox="0 0 512 512" xml:space="preserve">
<g transform="translate(0 1)">
	<path d="M163.31,334.448c-5.297,0-8.828-3.531-8.828-8.828V7.828c0-5.297,3.531-8.828,8.828-8.828c5.297,0,8.828,3.531,8.828,8.828
		v317.793C172.138,330.917,168.607,334.448,163.31,334.448z"/>
	<path d="M136.828,51.966c-3.531,0-6.179-1.766-7.945-5.297c-1.766-3.531,0-8.828,4.414-11.476L186.262,8.71
		c4.414-1.766,9.71,0,11.476,3.531c1.766,4.414,0,9.71-3.531,11.476L141.241,50.2C139.476,51.966,138.593,51.966,136.828,51.966z"/>
	<path d="M136.828,87.276c-3.531,0-6.179-1.766-7.945-5.297c-1.766-3.531,0-8.828,4.414-11.476l52.966-26.483
		c4.414-1.766,9.71,0,11.476,3.531c1.766,4.414,0,9.71-3.531,11.476L141.241,85.51C139.476,87.276,138.593,87.276,136.828,87.276z"
		/>
	<path d="M136.828,122.586c-3.531,0-6.179-1.766-7.945-5.297c-1.766-4.414,0-9.71,3.531-11.476l52.966-26.483
		c4.414-1.766,9.71,0,11.476,3.531c1.766,4.414,0,9.71-3.531,11.476l-52.966,26.483
		C139.476,122.586,138.593,122.586,136.828,122.586z"/>
	<path d="M136.828,157.897c-3.531,0-6.179-1.766-7.945-5.297c-1.766-4.414,0-9.71,3.531-11.476l52.966-26.483
		c4.414-1.766,9.71,0,11.476,3.531c1.766,4.414,0,9.71-3.531,11.476l-52.966,26.483
		C139.476,157.897,138.593,157.897,136.828,157.897z"/>
	<path d="M136.828,193.207c-3.531,0-6.179-1.766-7.945-5.297c-1.766-4.414,0-9.71,3.531-11.476l52.966-26.483
		c4.414-1.766,9.71,0,11.476,3.531c1.766,4.414,0,9.71-3.531,11.476l-52.966,26.483
		C139.476,193.207,138.593,193.207,136.828,193.207z"/>
	<path style="fill:#139DB5;" d="M110.345,511h105.931V369.759H110.345V511z"/>
	<path style="fill:#A4E7F0;" d="M128,369.759h70.621v-44.138H128V369.759z"/>
	<path style="fill:#139DB5;" d="M295.724,511h105.931V219.69H295.724V511z"/>
	<g>
		<path style="fill:#A4E7F0;" d="M313.379,219.69H384v-44.138h-70.621V219.69z"/>
		<path style="fill:#A4E7F0;" d="M348.69,405.069h52.966V263.828H348.69V405.069z"/>
	</g>
</g>
</svg>